<svg width="400" height="400" viewBox="0 0 400 400" fill="none" xmlns="http://www.w3.org/2000/svg">
  <rect width="400" height="400" fill="#FCFAF7"/>
  <g opacity="0.22" fill="#D6C9C2">
    <circle cx="22" cy="28" r="1.1"/>
    <circle cx="72" cy="61" r="0.9"/>
    <circle cx="136" cy="34" r="0.8"/>
    <circle cx="184" cy="82" r="1"/>
    <circle cx="246" cy="46" r="0.9"/>
    <circle cx="314" cy="58" r="1.1"/>
    <circle cx="362" cy="26" r="0.8"/>
    <circle cx="39" cy="126" r="0.9"/>
    <circle cx="103" cy="114" r="1"/>
    <circle cx="168" cy="142" r="0.8"/>
    <circle cx="221" cy="118" r="1"/>
    <circle cx="278" cy="134" r="0.9"/>
    <circle cx="337" cy="108" r="1"/>
    <circle cx="382" cy="146" r="0.8"/>
    <circle cx="28" cy="196" r="1"/>
    <circle cx="82" cy="214" r="0.8"/>
    <circle cx="144" cy="192" r="1.1"/>
    <circle cx="207" cy="226" r="0.9"/>
    <circle cx="268" cy="204" r="0.8"/>
    <circle cx="322" cy="219" r="1"/>
    <circle cx="371" cy="188" r="0.9"/>
    <circle cx="48" cy="286" r="0.8"/>
    <circle cx="112" cy="262" r="1"/>
    <circle cx="169" cy="304" r="0.9"/>
    <circle cx="234" cy="276" r="1.1"/>
    <circle cx="291" cy="294" r="0.8"/>
    <circle cx="348" cy="271" r="0.9"/>
    <circle cx="381" cy="318" r="1"/>
    <circle cx="22" cy="352" r="0.9"/>
    <circle cx="86" cy="338" r="0.8"/>
    <circle cx="142" cy="372" r="1"/>
    <circle cx="202" cy="346" r="0.8"/>
    <circle cx="264" cy="364" r="0.9"/>
    <circle cx="326" cy="346" r="1.1"/>
    <circle cx="373" cy="381" r="0.8"/>
  </g>
</svg>
